<svg xmlns="http://www.w3.org/2000/svg" xmlns:xlink="http://www.w3.org/1999/xlink" width="400" zoomAndPan="magnify" viewBox="0 0 300 337.499995" height="450" preserveAspectRatio="xMidYMid meet" version="1.0"><path fill="rgb(0%, 50.19989%, 21.569824%)" d="M 149.835938 0 C 72.296875 0 9.375 62.832031 9.375 140.417969 C 9.375 179.171875 25.09375 214.269531 50.527344 239.691406 L 149.835938 337 L 249.175781 239.671875 C 274.605469 214.273438 290.328125 179.175781 290.296875 140.390625 C 290.296875 62.902344 227.417969 0 149.835938 0 Z M 229.328125 219.785156 L 149.835938 297.671875 L 70.199219 219.621094 C 49.152344 198.617188 37.464844 170.410156 37.464844 140.417969 C 37.464844 78.476562 87.875 28.085938 149.835938 28.085938 C 179.847656 28.085938 208.078125 39.78125 229.296875 60.996094 C 250.519531 82.222656 262.207031 110.417969 262.207031 140.390625 C 262.234375 170.410156 250.542969 198.589844 229.328125 219.785156 Z M 229.328125 219.785156 " fill-opacity="1" fill-rule="nonzero"/><path fill="rgb(0%, 50.19989%, 21.569824%)" d="M 206.019531 112.332031 L 188.09375 76.492188 C 186.367188 73.035156 181.796875 70.210938 177.929688 70.210938 L 121.742188 70.210938 C 117.875 70.210938 113.304688 73.035156 111.578125 76.492188 L 93.652344 112.332031 L 72.582031 112.332031 L 72.582031 126.375 L 86.628906 133.394531 L 86.628906 196.582031 C 86.628906 200.449219 89.785156 203.605469 93.652344 203.605469 L 107.695312 203.605469 C 111.566406 203.605469 114.722656 200.449219 114.722656 196.582031 L 114.722656 182.542969 L 184.949219 182.542969 L 184.949219 196.582031 C 184.949219 200.449219 188.105469 203.605469 191.976562 203.605469 L 206.019531 203.605469 C 209.886719 203.605469 213.042969 200.449219 213.042969 196.582031 L 213.042969 133.394531 L 227.089844 126.375 L 227.089844 112.332031 Z M 118.230469 164.988281 C 112.417969 164.988281 107.695312 160.273438 107.695312 154.457031 C 107.695312 148.648438 112.417969 143.925781 118.230469 143.925781 C 124.046875 143.925781 128.765625 148.648438 128.765625 154.457031 C 128.765625 160.273438 124.046875 164.988281 118.230469 164.988281 Z M 110.195312 126.375 L 127.75 91.269531 L 171.921875 91.269531 L 189.476562 126.375 Z M 181.441406 164.988281 C 175.625 164.988281 170.90625 160.273438 170.90625 154.457031 C 170.90625 148.648438 175.625 143.925781 181.441406 143.925781 C 187.253906 143.925781 191.976562 148.648438 191.976562 154.457031 C 191.976562 160.273438 187.253906 164.988281 181.441406 164.988281 Z M 181.441406 164.988281 " fill-opacity="1" fill-rule="nonzero"/></svg>