<svg xmlns="http://www.w3.org/2000/svg" xmlns:xlink="http://www.w3.org/1999/xlink" width="400" zoomAndPan="magnify" viewBox="0 0 300 337.499995" height="450" preserveAspectRatio="xMidYMid meet" version="1.0"><path fill="rgb(0%, 50.19989%, 21.569824%)" d="M 149.835938 0 C 72.296875 0 9.375 62.832031 9.375 140.414062 C 9.375 179.171875 25.09375 214.269531 50.527344 239.691406 L 149.835938 337 L 249.175781 239.671875 C 274.605469 214.273438 290.328125 179.175781 290.296875 140.390625 C 290.296875 62.902344 227.417969 0 149.835938 0 Z M 229.328125 219.785156 L 149.835938 297.671875 L 70.199219 219.621094 C 49.152344 198.617188 37.464844 170.410156 37.464844 140.417969 C 37.464844 78.480469 87.875 28.085938 149.835938 28.085938 C 179.847656 28.085938 208.078125 39.78125 229.296875 60.996094 C 250.519531 82.222656 262.207031 110.417969 262.207031 140.394531 C 262.234375 170.410156 250.542969 198.589844 229.328125 219.785156 Z M 229.328125 219.785156 " fill-opacity="1" fill-rule="nonzero"/><path fill="rgb(0%, 50.19989%, 21.569824%)" d="M 156.859375 84.25 L 114.722656 84.25 L 114.722656 210.625 L 142.8125 210.625 L 142.8125 168.5 L 156.859375 168.5 C 180.125 168.5 199 149.632812 199 126.375 C 199 103.105469 180.125 84.25 156.859375 84.25 Z M 156.859375 140.414062 L 142.8125 140.414062 L 142.8125 112.332031 L 156.859375 112.332031 C 164.609375 112.335938 170.90625 118.617188 170.90625 126.375 C 170.90625 134.121094 164.609375 140.414062 156.859375 140.414062 Z M 156.859375 140.414062 " fill-opacity="1" fill-rule="nonzero"/><path fill="rgb(0%, 50.19989%, 21.569824%)" d="M 149.988281 54.949219 C 103.460938 54.949219 65.738281 92.667969 65.738281 139.199219 C 65.738281 185.730469 103.460938 223.449219 149.988281 223.449219 C 196.519531 223.449219 234.238281 185.730469 234.238281 139.199219 C 234.238281 92.667969 196.519531 54.949219 149.988281 54.949219 " fill-opacity="1" fill-rule="nonzero"/></svg>