<svg xmlns="http://www.w3.org/2000/svg" xmlns:xlink="http://www.w3.org/1999/xlink" width="400" zoomAndPan="magnify" viewBox="0 0 300 337.499995" height="450" preserveAspectRatio="xMidYMid meet" version="1.0"><path fill="rgb(100%, 8.628845%, 8.628845%)" d="M 171.921875 91.273438 L 127.75 91.273438 L 110.195312 126.375 L 189.476562 126.375 Z M 171.921875 91.273438 " fill-opacity="1" fill-rule="nonzero"/><path fill="rgb(100%, 8.628845%, 8.628845%)" d="M 191.976562 154.460938 C 191.976562 155.152344 191.90625 155.835938 191.773438 156.515625 C 191.636719 157.191406 191.4375 157.851562 191.171875 158.488281 C 190.910156 159.128906 190.582031 159.734375 190.199219 160.3125 C 189.816406 160.886719 189.378906 161.417969 188.890625 161.90625 C 188.402344 162.394531 187.867188 162.832031 187.292969 163.214844 C 186.71875 163.601562 186.109375 163.925781 185.472656 164.191406 C 184.832031 164.453125 184.175781 164.652344 183.496094 164.789062 C 182.816406 164.925781 182.132812 164.992188 181.441406 164.992188 C 180.75 164.992188 180.0625 164.925781 179.386719 164.789062 C 178.707031 164.652344 178.046875 164.453125 177.410156 164.191406 C 176.769531 163.925781 176.164062 163.601562 175.585938 163.214844 C 175.011719 162.832031 174.480469 162.394531 173.992188 161.90625 C 173.503906 161.417969 173.066406 160.886719 172.679688 160.3125 C 172.296875 159.734375 171.972656 159.128906 171.707031 158.488281 C 171.441406 157.851562 171.242188 157.191406 171.109375 156.515625 C 170.972656 155.835938 170.90625 155.152344 170.90625 154.460938 C 170.90625 153.769531 170.972656 153.082031 171.109375 152.40625 C 171.242188 151.726562 171.441406 151.070312 171.707031 150.429688 C 171.972656 149.792969 172.296875 149.183594 172.679688 148.609375 C 173.066406 148.035156 173.503906 147.503906 173.992188 147.011719 C 174.480469 146.523438 175.011719 146.085938 175.585938 145.703125 C 176.164062 145.320312 176.769531 144.996094 177.410156 144.730469 C 178.046875 144.464844 178.707031 144.265625 179.386719 144.132812 C 180.0625 143.996094 180.75 143.929688 181.441406 143.929688 C 182.132812 143.929688 182.816406 143.996094 183.496094 144.132812 C 184.175781 144.265625 184.832031 144.464844 185.472656 144.730469 C 186.109375 144.996094 186.71875 145.320312 187.292969 145.703125 C 187.867188 146.085938 188.402344 146.523438 188.890625 147.011719 C 189.378906 147.503906 189.816406 148.035156 190.199219 148.609375 C 190.585938 149.183594 190.910156 149.792969 191.171875 150.429688 C 191.4375 151.070312 191.636719 151.726562 191.773438 152.40625 C 191.90625 153.082031 191.976562 153.769531 191.976562 154.460938 Z M 191.976562 154.460938 " fill-opacity="1" fill-rule="nonzero"/><path fill="rgb(100%, 8.628845%, 8.628845%)" d="M 128.765625 154.460938 C 128.765625 155.152344 128.699219 155.835938 128.5625 156.515625 C 128.429688 157.191406 128.230469 157.851562 127.964844 158.488281 C 127.699219 159.128906 127.375 159.734375 126.992188 160.3125 C 126.605469 160.886719 126.171875 161.417969 125.679688 161.90625 C 125.191406 162.394531 124.660156 162.832031 124.085938 163.214844 C 123.507812 163.601562 122.902344 163.925781 122.261719 164.191406 C 121.625 164.453125 120.964844 164.652344 120.285156 164.789062 C 119.609375 164.925781 118.921875 164.992188 118.230469 164.992188 C 117.539062 164.992188 116.855469 164.925781 116.175781 164.789062 C 115.5 164.652344 114.839844 164.453125 114.199219 164.191406 C 113.5625 163.925781 112.953125 163.601562 112.378906 163.214844 C 111.804688 162.832031 111.273438 162.394531 110.78125 161.90625 C 110.292969 161.417969 109.855469 160.886719 109.472656 160.3125 C 109.089844 159.734375 108.761719 159.128906 108.5 158.488281 C 108.234375 157.851562 108.035156 157.191406 107.898438 156.515625 C 107.765625 155.835938 107.695312 155.152344 107.695312 154.460938 C 107.695312 153.769531 107.765625 153.082031 107.898438 152.40625 C 108.035156 151.726562 108.234375 151.070312 108.5 150.429688 C 108.761719 149.792969 109.089844 149.183594 109.472656 148.609375 C 109.855469 148.035156 110.292969 147.503906 110.78125 147.011719 C 111.273438 146.523438 111.804688 146.085938 112.378906 145.703125 C 112.953125 145.320312 113.5625 144.996094 114.199219 144.730469 C 114.839844 144.464844 115.5 144.265625 116.175781 144.132812 C 116.855469 143.996094 117.539062 143.929688 118.230469 143.929688 C 118.921875 143.929688 119.609375 143.996094 120.285156 144.132812 C 120.964844 144.265625 121.625 144.464844 122.261719 144.730469 C 122.902344 144.996094 123.507812 145.320312 124.085938 145.703125 C 124.660156 146.085938 125.191406 146.523438 125.679688 147.011719 C 126.171875 147.503906 126.605469 148.035156 126.992188 148.609375 C 127.375 149.183594 127.699219 149.792969 127.964844 150.429688 C 128.230469 151.070312 128.429688 151.726562 128.5625 152.40625 C 128.699219 153.082031 128.765625 153.769531 128.765625 154.460938 Z M 128.765625 154.460938 " fill-opacity="1" fill-rule="nonzero"/><path fill="rgb(100%, 8.628845%, 8.628845%)" d="M 149.835938 0 C 72.296875 0 9.375 62.828125 9.375 140.414062 C 9.375 179.167969 25.09375 214.273438 50.527344 239.695312 L 149.835938 337 L 249.175781 239.671875 C 274.605469 214.277344 290.328125 179.171875 290.296875 140.394531 C 290.296875 62.902344 227.417969 0 149.835938 0 Z M 227.089844 126.375 L 213.042969 133.398438 L 213.042969 196.585938 C 213.042969 200.453125 209.886719 203.601562 206.019531 203.601562 L 191.976562 203.601562 C 188.105469 203.601562 184.949219 200.453125 184.949219 196.585938 L 184.949219 182.539062 L 114.722656 182.539062 L 114.722656 196.585938 C 114.722656 200.453125 111.566406 203.601562 107.695312 203.601562 L 93.652344 203.601562 C 89.785156 203.601562 86.628906 200.453125 86.628906 196.585938 L 86.628906 133.398438 L 72.582031 126.375 L 72.582031 112.335938 L 93.652344 112.335938 L 111.578125 76.488281 C 113.304688 73.03125 117.875 70.210938 121.742188 70.210938 L 177.929688 70.210938 C 181.796875 70.210938 186.367188 73.03125 188.09375 76.488281 L 206.019531 112.335938 L 227.089844 112.335938 Z M 227.089844 126.375 " fill-opacity="1" fill-rule="nonzero"/></svg>