<svg xmlns="http://www.w3.org/2000/svg" xmlns:xlink="http://www.w3.org/1999/xlink" width="400" zoomAndPan="magnify" viewBox="0 0 300 337.499995" height="450" preserveAspectRatio="xMidYMid meet" version="1.0"><path fill="rgb(100%, 8.628845%, 8.628845%)" d="M 156.859375 112.335938 L 142.8125 112.335938 L 142.8125 140.414062 L 156.859375 140.414062 C 164.609375 140.414062 170.90625 134.121094 170.90625 126.375 C 170.90625 118.613281 164.609375 112.335938 156.859375 112.335938 Z M 156.859375 112.335938 " fill-opacity="1" fill-rule="nonzero"/><path fill="rgb(100%, 8.628845%, 8.628845%)" d="M 149.835938 0 C 72.296875 0 9.375 62.828125 9.375 140.414062 C 9.375 179.167969 25.09375 214.273438 50.527344 239.695312 L 149.835938 337 L 249.175781 239.671875 C 274.605469 214.277344 290.328125 179.171875 290.296875 140.394531 C 290.296875 62.902344 227.417969 0 149.835938 0 Z M 156.859375 168.5 L 142.8125 168.5 L 142.8125 210.625 L 114.722656 210.625 L 114.722656 84.25 L 156.859375 84.25 C 180.125 84.25 199 103.105469 199 126.375 C 199 149.632812 180.125 168.5 156.859375 168.5 Z M 156.859375 168.5 " fill-opacity="1" fill-rule="nonzero"/></svg>